<?xml version="1.0" encoding="UTF-8"?>
<svg width="19px" height="19px" viewBox="0 0 19 19" version="1.1" xmlns="http://www.w3.org/2000/svg" xmlns:xlink="http://www.w3.org/1999/xlink">
    <g id="Page-1" stroke="none" stroke-width="1" fill="none" fill-rule="evenodd">
        <g id="android-icon">
            <rect id="Mask" fill="#94D35A" x="0" y="0" width="19" height="19" rx="2"></rect>
            <g id="kecleon-original">
                <circle id="Oval" fill="#2B3332" fill-rule="nonzero" cx="4" cy="10" r="1"></circle>
                <g id="Group" transform="translate(0.000000, 14.000000)" fill-rule="nonzero">
                    <path d="M4,0.531 L0,0 L0,0.906 C1.176,0.906 2.188,1.315 2.727,1.914 L3.672,1.375 L4,0.531 Z" id="Path" fill="#F57552"></path>
                    <path d="M0,0.906 L0,3.468 L2.727,1.913 C2.188,1.315 1.176,0.906 0,0.906 Z" id="Path" fill="#FF805D"></path>
                </g>
                <g id="Group"></g>
            </g>
            <path d="M0.261305231,17.9891008 C0.0950081853,17.6974038 4.40624325e-17,17.3597971 0,17 C1.05705124,16.9999531 2.17710554,16.1919153 3.00814582,15.3928778 C3.16315334,15.2438708 3.06814873,14.9798584 2.85413836,14.9638577 C1.40406806,14.8538525 0,14.4998359 0,14.4998359 L0,6.23144839 C0.348016871,5.90843325 0.744036068,5.67642238 0.997048333,5.55141652 C1.39706772,5.35440728 1.79208687,5.25340255 2.1721053,5.21740086 L4.82823405,0.395174837 C4.96824084,0.142162978 5.2232532,-0.0208446619 5.53426828,0.00215641618 C5.82828253,0.0131569318 6.08529499,0.182164853 6.20530081,0.444177134 L6.81733048,1.7832399 L7.25635176,1.51822748 C7.39235835,1.43622363 7.54936596,1.38822138 7.70737362,1.3972218 C8.09839258,1.41822279 8.38740659,1.69823591 8.43540892,2.04425213 L8.99343597,6.11744305 C9.01843718,6.30445181 8.9714349,6.49046053 8.86242962,6.6434677 L6.98733872,9.27959126 C6.99033887,9.35359473 7.00033935,9.42459806 7.00033935,9.49960157 C7.00033935,11.429692 5.76727958,12.9997656 4.25020603,12.9997656 C2.73313249,12.9997656 1.50007272,11.429692 1.50007272,9.49960157 C1.50007272,8.06453431 2.18310583,6.83047647 3.15715305,6.2914512 C2.63712784,6.1634452 2.03509865,6.15344474 1.44006981,6.44745852 C1.03405013,6.64746789 1.00004848,7.14649128 1.00004848,7.14649128 L0.499024191,13.285779 C1.08205245,13.561792 2.63112755,14.1778208 4.45021573,13.9418098 C4.64522518,13.9128084 4.84223473,14.009813 4.94423968,14.180821 C5.04624462,14.351829 5.03824423,14.5668391 4.92123856,14.7288467 C4.82950394,14.8582406 2.69489957,17.7876016 0.261305231,17.9891008 Z M4.25020603,11.9997188 C5.19925204,11.9997188 6.00029087,10.8546651 6.00029087,9.49960157 C6.00029087,8.14453806 5.19925204,6.99948439 4.25020603,6.99948439 C3.30116003,6.99948439 2.5001212,8.14453806 2.5001212,9.49960157 C2.5001212,10.8546651 3.30116003,11.9997188 4.25020603,11.9997188 Z M7.93138448,6.2274482 C7.96838628,6.17544577 7.983387,6.11144277 7.97438657,6.04943986 L7.54536577,2.91929315 C7.52036456,2.7412848 7.32235496,2.64628035 7.16834749,2.73928471 L6.61332059,3.07430041 C6.48631443,3.15130402 6.31930634,3.10030163 6.25730333,2.96429526 L5.69227594,1.72723727 C5.60727182,1.54022851 5.34525912,1.53022804 5.24625432,1.71023648 L3.27515877,5.28840419 C4.32120948,5.51441478 5.10624753,6.11344286 5.2892564,6.26344989 C5.90728636,6.58546498 6.41331089,7.1874932 6.71032529,7.94352864 L7.93138448,6.2274482 Z" id="Combined-Shape" fill="#FADA7F"></path>
        </g>
    </g>
</svg>