<?xml version="1.0" encoding="UTF-8"?>
<svg width="19000px" height="19000px" viewBox="0 0 19 19" version="1.1" xmlns="http://www.w3.org/2000/svg" xmlns:xlink="http://www.w3.org/1999/xlink">
    <g id="Page-1" stroke="none" stroke-width="1" fill="none" fill-rule="evenodd">
        <g id="kecleon-original">
            <path d="M8.498,6.186 L7.94,2.113 C7.915,1.932 7.694,1.838 7.529,1.938 L6.596,2.501 L5.751,0.652 C5.663,0.459 5.37,0.449 5.267,0.636 L3.459,3.919 C2.438,3.337 1.259,3 0,3 L0,18 C1.979,18 7,13.866 7,10 C7,9.52 6.951,9.051 6.859,8.598 L8.456,6.352 C8.491,6.303 8.506,6.244 8.498,6.186 Z" id="Path" fill="#94D35A" fill-rule="nonzero"></path>
            <rect id="Rectangle" x="0" y="0" width="19" height="19"></rect>
            <circle id="Oval" fill="#2B3332" fill-rule="nonzero" cx="4" cy="10" r="1"></circle>
            <g id="Group" transform="translate(0.000000, 14.000000)" fill-rule="nonzero">
                <path d="M4,0.531 L0,0 L0,0.906 C1.176,0.906 2.188,1.315 2.727,1.914 L3.672,1.375 L4,0.531 Z" id="Path" fill="#F57552"></path>
                <path d="M0,0.906 L0,3.468 L2.727,1.913 C2.188,1.315 1.176,0.906 0,0.906 Z" id="Path" fill="#FF805D"></path>
            </g>
            <g id="Group" fill="#FADA7F" fill-rule="nonzero">
                <path d="M8.993,6.118 L8.435,2.045 C8.387,1.699 8.098,1.419 7.707,1.398 C7.549,1.389 7.392,1.437 7.256,1.519 L6.817,1.784 L6.205,0.445 C6.085,0.183 5.828,0.014 5.534,0.003 C5.223,-0.02 4.968,0.143 4.828,0.396 L2.172,5.218 C1.792,5.254 1.397,5.355 0.997,5.552 C0.744,5.677 0.348,5.909 0,6.232 L0,14.5 C0,14.5 1.404,14.854 2.854,14.964 C3.068,14.98 3.163,15.244 3.008,15.393 C2.177,16.192 1.057,17 0,17 L0,18 C2.54,18 4.826,14.863 4.921,14.729 C5.038,14.567 5.046,14.352 4.944,14.181 C4.842,14.01 4.645,13.913 4.45,13.942 C2.631,14.178 1.082,13.562 0.499,13.286 L1,7.147 C1,7.147 1.034,6.648 1.44,6.448 C2.035,6.154 2.637,6.164 3.157,6.292 C2.183,6.831 1.5,8.065 1.5,9.5 C1.5,11.43 2.733,13 4.25,13 C5.767,13 7,11.43 7,9.5 C7,9.425 6.99,9.354 6.987,9.28 L8.862,6.644 C8.971,6.491 9.018,6.305 8.993,6.118 Z M4.25,12 C3.301,12 2.5,10.855 2.5,9.5 C2.5,8.145 3.301,7 4.25,7 C5.199,7 6,8.145 6,9.5 C6,10.855 5.199,12 4.25,12 Z M7.931,6.228 L6.71,7.944 C6.413,7.188 5.907,6.586 5.289,6.264 C5.106,6.114 4.321,5.515 3.275,5.289 L5.246,1.711 C5.345,1.531 5.607,1.541 5.692,1.728 L6.257,2.965 C6.319,3.101 6.486,3.152 6.613,3.075 L7.168,2.74 C7.322,2.647 7.52,2.742 7.545,2.92 L7.974,6.05 C7.983,6.112 7.968,6.176 7.931,6.228 Z" id="Shape"></path>
            </g>
        </g>
    </g>
</svg>