<?xml version="1.0" standalone="no"?>
<!DOCTYPE svg PUBLIC "-//W3C//DTD SVG 20010904//EN"
 "http://www.w3.org/TR/2001/REC-SVG-20010904/DTD/svg10.dtd">
<svg version="1.0" xmlns="http://www.w3.org/2000/svg"
 width="700.000000pt" height="700.000000pt" viewBox="0 0 700.000000 700.000000"
 preserveAspectRatio="xMidYMid meet">
<metadata>
Created by potrace 1.11, written by Peter Selinger 2001-2013
</metadata>
<g transform="translate(0.000000,700.000000) scale(0.100000,-0.100000)"
fill="#000000" stroke="none">
<path d="M1914 6976 c-77 -36 -108 -70 -178 -199 -20 -37 -46 -84 -58 -105
-17 -30 -316 -574 -429 -779 -92 -167 -128 -232 -136 -246 -3 -4 -10 -4 -16 1
-20 15 -276 117 -318 127 -9 2 -48 13 -86 24 -39 12 -93 26 -119 31 -27 6 -60
13 -74 15 -49 11 -142 26 -173 30 -117 12 -172 16 -242 18 l-80 2 -3 -2763 -2
-2763 66 2 c96 4 347 56 379 79 6 4 21 11 35 15 14 4 50 19 80 32 30 14 64 29
75 34 11 5 27 13 35 18 8 5 22 12 30 15 8 4 31 16 50 28 19 11 44 26 55 32 55
32 214 142 270 187 286 234 520 474 716 734 41 55 110 145 152 200 43 55 81
105 85 110 36 48 141 211 193 300 84 143 143 264 203 415 10 25 22 54 27 65
29 70 91 306 104 395 4 25 9 56 12 70 2 14 6 129 8 257 l5 232 312 438 c373
524 404 569 412 608 13 66 13 82 5 140 -5 33 -11 85 -14 115 -3 30 -8 62 -10
70 -3 8 -7 38 -10 65 -3 28 -8 61 -10 75 -2 14 -9 61 -15 106 -6 44 -12 89
-14 100 -2 10 -7 46 -11 79 -5 33 -9 67 -10 75 -1 8 -5 40 -9 70 -4 30 -9 66
-11 80 -5 38 -13 96 -25 185 -6 44 -13 91 -15 105 -2 14 -9 62 -15 107 -6 46
-13 95 -15 110 -2 16 -6 51 -10 78 -20 156 -85 241 -210 277 -96 28 -169 9
-312 -80 l-80 -50 -58 126 c-32 70 -73 159 -90 197 -18 39 -46 100 -63 136
-58 130 -140 189 -267 195 -58 3 -81 -1 -121 -20z"/>
</g>
</svg>
